<?xml version="1.0" encoding="UTF-8" standalone="no"?>
<svg
   xmlns:dc="http://purl.org/dc/elements/1.1/"
   xmlns:cc="http://creativecommons.org/ns#"
   xmlns:rdf="http://www.w3.org/1999/02/22-rdf-syntax-ns#"
   xmlns:svg="http://www.w3.org/2000/svg"
   xmlns="http://www.w3.org/2000/svg"
   xmlns:sodipodi="http://sodipodi.sourceforge.net/DTD/sodipodi-0.dtd"
   xmlns:inkscape="http://www.inkscape.org/namespaces/inkscape"
   width="2220"
   height="1200.6702"
   viewBox="0 0 587.37503 317.67733"
   version="1.1"
   id="svg8"
   inkscape:version="1.0.1 (3bc2e813f5, 2020-09-07)"
   sodipodi:docname="icon.svg">
  <defs
     id="defs2">
    <rect
       x="57.513885"
       y="97.348297"
       width="97.322594"
       height="56.935917"
       id="rect45" />
    <rect
       x="56.145477"
       y="101.50509"
       width="106.26013"
       height="72.748055"
       id="rect39" />
    <rect
       x="56.746769"
       y="110.85979"
       width="100.97086"
       height="40.001549"
       id="rect31" />
  </defs>
  <sodipodi:namedview
     id="base"
     pagecolor="#ffffff"
     bordercolor="#666666"
     borderopacity="1.0"
     inkscape:pageopacity="0.0"
     inkscape:pageshadow="2"
     inkscape:zoom="0.35"
     inkscape:cx="1204.6166"
     inkscape:cy="520.58098"
     inkscape:document-units="mm"
     inkscape:current-layer="layer1"
     inkscape:document-rotation="0"
     showgrid="false"
     fit-margin-top="0"
     fit-margin-left="0"
     fit-margin-right="0"
     fit-margin-bottom="0"
     inkscape:window-width="1848"
     inkscape:window-height="1016"
     inkscape:window-x="1992"
     inkscape:window-y="536"
     inkscape:window-maximized="1"
     units="px" />
  <metadata
     id="metadata5">
    <rdf:RDF>
      <cc:Work
         rdf:about="">
        <dc:format>image/svg+xml</dc:format>
        <dc:type
           rdf:resource="http://purl.org/dc/dcmitype/StillImage" />
        <dc:title></dc:title>
      </cc:Work>
    </rdf:RDF>
  </metadata>
  <g
     inkscape:label="Layer 1"
     inkscape:groupmode="layer"
     id="layer1"
     transform="translate(-37.089146,-21.745281)">
    <path
       id="rect10"
       style="fill:#333333;fill-rule:evenodd;stroke-width:0.264583"
       d="m 281.60837,52.040069 h 98.33655 c 11.96031,0 21.589,9.628697 21.589,21.589007 V 287.5388 c 0,11.96031 -9.62869,21.58901 -21.589,21.58901 h -98.33655 c -11.9603,0 -21.589,-9.6287 -21.589,-21.58901 V 73.629076 c 0,-11.96031 9.6287,-21.589007 21.589,-21.589007 z" />
    <path
       id="rect10-3"
       style="fill:#999999;fill-rule:evenodd;stroke-width:0.21337"
       d="m 288.43723,80.561248 h 84.67882 c 9.30657,0 16.79887,7.492292 16.79887,16.798861 V 263.80777 c 0,9.30657 -7.4923,16.79886 -16.79887,16.79886 h -84.67882 c -9.30657,0 -16.79886,-7.49229 -16.79886,-16.79886 V 97.360109 c 0,-9.306569 7.49229,-16.798861 16.79886,-16.798861 z" />
    <g
       aria-label="WA"
       transform="translate(223.97371,56.990433)"
       id="text43"
       style="font-size:50.4472px;line-height:1.25;font-family:sans-serif;text-align:center;white-space:pre;shape-inside:url(#rect45);fill:#ffffff">
      <path
         d="M 67.033886,105.2054 H 72.0589 l 7.73458,31.08612 7.709949,-31.08612 h 5.591559 l 7.734582,31.08612 7.70995,-31.08612 h 5.04964 l -9.23715,36.77621 h -6.25664 l -7.759213,-31.92362 -7.83311,31.92362 h -6.256635 z"
         style="font-size:50.4472px;text-align:center;text-anchor:middle;fill:#ffffff"
         id="path19" />
      <path
         d="m 129.7234,110.10725 -6.74928,18.30189 h 13.5232 z m -2.8081,-4.90185 h 5.64083 l 14.01585,36.77621 h -5.17281 l -3.35001,-9.43422 h -16.57762 l -3.35001,9.43422 h -5.24671 z"
         style="font-size:50.4472px;text-align:center;text-anchor:middle;fill:#ffffff"
         id="path21" />
    </g>
  </g>
</svg>
